<svg height="512" viewBox="0 0 60 60" width="512" xmlns="http://www.w3.org/2000/svg"><g id="Page-1" fill="none" fill-rule="evenodd"><g id="007---Sailing" fill-rule="nonzero"><path id="Shape" d="m52.52 47-4.12 5.97c-1.3159545-.0656893-2.62058-.2769782-3.89-.63h-.01c-3.1585046-.8899783-6.5014954-.8899783-9.66 0-3.1598521.880173-6.5001479.880173-9.66 0h-.01c-3.1585046-.8899783-6.5014954-.8899783-9.66 0h-.01c-1.2719311.3570879-2.5803291.5684445-3.9.63l-4.12-5.97z" fill="#f44335"/><path id="Shape" d="m49.52 47-3.872 5.611c.9061655.1936006 1.826494.313658 2.752.359l4.12-5.97z" fill="#c81e1e"/><path id="Shape" d="m58.64 38.13-6.12 8.87h-45.04l-6.12-8.87c-.42277995-.6098902-.47189313-1.4041088-.12747616-2.0614412.34441698-.6573324 1.02537865-1.0690197 1.76747616-1.0685588h54c.7420975-.0004609 1.4230592.4112264 1.7674762 1.0685588.3444169.6573324.2953038 1.451551-.1274762 2.0614412z" fill="#ffdc00"/><path id="Shape" d="m57 35h-3c.7420975-.0004609 1.4230592.4112264 1.7674762 1.0685588.3444169.6573324.2953038 1.451551-.1274762 2.0614412l-6.12 8.87h3l6.12-8.87c.42278-.6098902.4718931-1.4041088.1274762-2.0614412-.344417-.6573324-1.0253787-1.0690197-1.7674762-1.0685588z" fill="#fec108"/><circle id="Oval" cx="30" cy="43" fill="#02a9f4" r="4"/><path id="Shape" d="m30 39c-.5146843.0021695-1.0240724.1040471-1.5.3 1.5110147.6085107 2.5007405 2.0740584 2.5007405 3.703s-.9897258 3.0944893-2.5007405 3.703c1.496414.6077595 3.211506.2559465 4.3478056-.8918556s1.4708211-2.8663504.8480212-4.3565675c-.6227999-1.490217-2.0807039-2.4596648-3.6958268-2.4575769z" fill="#0377bc"/><circle id="Oval" cx="43" cy="43" fill="#02a9f4" r="4"/><path id="Shape" d="m43 39c-.5146843.0021695-1.0240724.1040471-1.5.3 1.5110147.6085107 2.5007405 2.0740584 2.5007405 3.703s-.9897258 3.0944893-2.5007405 3.703c1.496414.6077595 3.211506.2559465 4.3478056-.8918556s1.4708211-2.8663504.8480212-4.3565675c-.6227999-1.490217-2.0807039-2.4596648-3.6958268-2.4575769z" fill="#0377bc"/><circle id="Oval" cx="17" cy="43" fill="#02a9f4" r="4"/><path id="Shape" d="m17 39c-.5146843.0021695-1.0240724.1040471-1.5.3 1.5110147.6085107 2.5007405 2.0740584 2.5007405 3.703s-.9897258 3.0944893-2.5007405 3.703c1.496414.6077595 3.211506.2559465 4.3478056-.8918556s1.4708211-2.8663504.8480212-4.3565675c-.6227999-1.490217-2.0807039-2.4596648-3.6958268-2.4575769z" fill="#0377bc"/><path id="Shape" d="m28 1h4v32c0 1.1045695-.8954305 2-2 2s-2-.8954305-2-2z" fill="#7f8e94" transform="matrix(-1 0 0 -1 60 36)"/><path id="Shape" d="m53 29.93c.017342.2765983-.0800779.548117-.2693114.7505968-.1892335.2024799-.4535506.3180198-.7306886.3194032h-20v-4h20.68c.18 1.22.28 2.23.32 2.93z" fill="#ff9801"/><path id="Shape" d="m52.68 27h-3c.18 1.22.28 2.23.32 2.93.017342.2765983-.0800779.548117-.2693114.7505968-.1892335.2024799-.4535506.3180198-.7306886.3194032h3c.277138-.0013834.5414551-.1169233.7306886-.3194032.1892335-.2024798.2866534-.4739985.2693114-.7505968-.04-.7-.14-1.71-.32-2.93z" fill="#f57c00"/><path id="Shape" d="m52.68 27h-20.68v-23c15.63 2.23 19.65 16.05 20.68 23z" fill="#ffeb3a"/><path id="Shape" d="m32 4v.607c13.154 3.458 16.719 15.911 17.68 22.393h3c-1.03-6.95-5.05-20.77-20.68-23z" fill="#fdd834"/><path id="Shape" d="m28 27v4.0000037l-17.14-.0000037c-.2371125.0006944-.4639662-.0966531-.6268295-.2689853-.1628634-.1723321-.24724927-.4043195-.2331705-.6410147.05-.7.15-1.78.37-3.09z" fill="#ff9801"/><path id="Shape" d="m28 8v19h-17.63c1.02-6.09 4.67-17.16 17.63-19z" fill="#ffeb3a"/><g fill="#000"><path id="Shape" d="m9.694 51.969c-1.21262213-.0708554-2.41432707-.2699664-3.585-.594l-4.842-1.339c-.34440403-.0953899-.71353641.0002035-.96834852.2507712-.25481211.2505677-.35659194.6180424-.26700001.964.08959194.3459576.35694449.6178389.70134853.7132288l4.843 1.336c3.33547726.9367546 6.8645227.9367546 10.2 0 2.9855767-.8385047 6.1444233-.8385047 9.13 0 3.3355412.9362906 6.8644588.9362906 10.2 0 2.9855767-.8385047 6.1444233-.8385047 9.13 0 3.3355057.9365483 6.8644943.9365483 10.2 0l4.83-1.337c.344404-.0953899.6117566-.3672712.7013485-.7132288.089592-.3459576-.0121879-.7134323-.267-.964s-.6239445-.3461611-.9683485-.2507712l-4.832 1.338c-1.1752757.3273303-2.3820915.5284663-3.6.6l9.16-13.273c.6354821-.9152485.7099385-2.107742.1932402-3.09493-.5166984-.9871879-1.5390064-1.6056302-2.6532402-1.60507h-24v-2h19c.5537447.0011711 1.0831917-.2272926 1.4622364-.6309752s.5737583-.94645.5377636-1.4990248c-.249-3.94-2.439-23.48-21-26.71v-.16c0-1.65685425-1.3431458-3-3-3s-3 1.34314575-3 3v4.159c-15.906 2.832-17.782 19.501-18 22.869-.03238867.5124371.14907033 1.0153774.5011784 1.3890895s.8433653.5847634 1.3568216.5829105h16.142v2h-24c-1.11477273-.0016786-2.13810322.6163316-2.6555467 1.6037389-.51744347.9874074-.44324447 2.1805698.1925467 3.0962611zm24.876-.594c-2.9863252.8380028-6.1456748.8380028-9.132 0-3.3375522-.936486-6.8684478-.936486-10.206 0-1.0245157.2825721-2.0729884.4697037-3.132.559l-2.715-3.934h41.23l-2.715 3.933c-1.0582964-.0903044-2.1060434-.2777607-3.13-.56-3.3357248-.9356366-6.8646424-.9349447-10.2.002zm-20.57-8.375c0-1.6568542 1.3431458-3 3-3s3 1.3431458 3 3-1.3431458 3-3 3-3-1.3431458-3-3zm13 0c0-1.6568542 1.3431458-3 3-3s3 1.3431458 3 3-1.3431458 3-3 3-3-1.3431458-3-3zm13 0c0-1.6568542 1.3431458-3 3-3s3 1.3431458 3 3-1.3431458 3-3 3-3-1.3431458-3-3zm-7-13v-2h18.811c.094.775.153 1.455.187 2zm18.514-4h-18.514v-20.812c13.232 2.479 17.284 13.851 18.514 20.812zm-24.514-16.814v16.814h-15.439c1.2-5.895 4.783-14.746 15.439-16.814zm-15.99 20.814c.037-.543.1-1.224.209-2h15.781v2zm17.99-27c0-.55228475.4477153-1 1-1s1 .44771525 1 1v31h-2zm-26.884 33.536c.16898129-.3320319.5114597-.5396885.884-.536h54c.3725403-.0036885.7150187.2039681.884.536.1758659.3267629.1494518.7253049-.068 1.026l-5.816 8.438h-5.026c.6618067-.8603889 1.0223232-1.9145307 1.026-3 0-2.7614237-2.2385763-5-5-5s-5 2.2385763-5 5c.0036768 1.0854693.3641933 2.1396111 1.026 3h-5.052c.6618067-.8603889 1.0223232-1.9145307 1.026-3 0-2.7614237-2.2385763-5-5-5s-5 2.2385763-5 5c.0036768 1.0854693.3641933 2.1396111 1.026 3h-5.052c.6618067-.8603889 1.0223232-1.9145307 1.026-3 0-2.7614237-2.2385763-5-5-5s-5 2.2385763-5 5c.0036768 1.0854693.3641933 2.1396111 1.026 3h-5.021l-5.824-8.442c-.21531201-.3002099-.24054381-.6969314-.065-1.022z"/><path id="Shape" d="m.733 57.964 4.843 1.336c3.33547726.9367546 6.8645227.9367546 10.2 0 2.9855767-.8385047 6.1444233-.8385047 9.13 0 3.3355412.9362906 6.8644588.9362906 10.2 0 2.9855767-.8385047 6.1444233-.8385047 9.13 0 3.3355057.9365483 6.8644943.9365483 10.2 0l4.83-1.337c.344404-.0953899.6117566-.3672712.7013485-.7132288s-.0121879-.7134323-.267-.964-.6239445-.3461611-.9683485-.2507712l-4.832 1.338c-2.9861902.8389825-6.1458098.8389825-9.132 0-3.3355412-.9362906-6.8644588-.9362906-10.2 0-2.9863252.8380028-6.1456748.8380028-9.132 0-3.3374812-.9370012-6.8685188-.9370012-10.206 0-2.9834999.83632-6.1395001.83632-9.123 0l-4.84-1.337c-.34440403-.0953899-.71353641.0002035-.96834852.2507712-.25481211.2505677-.35659194.6180424-.26700001.964.08959194.3459576.35694449.6178389.70134853.7132288z"/></g></g></g></svg>